HIERARCHY
ROOT root
{
  OFFSET -77.3165 94.0043 25.5882
  CHANNELS 6 Xposition Yposition Zposition Zrotation Xrotation Yrotation
  JOINT lowerback
  {
    OFFSET 0 0 0
    CHANNELS 6 Xposition Yposition Zposition Zrotation Xrotation Yrotation
    JOINT upperback
    {
      OFFSET -0.0146535 10.7314 1.20016
      CHANNELS 6 Xposition Yposition Zposition Zrotation Xrotation Yrotation
      JOINT thorax
      {
        OFFSET -0.0615349 10.8421 0.200216
        CHANNELS 6 Xposition Yposition Zposition Zrotation Xrotation Yrotation
        JOINT lowerneck
        {
          OFFSET -0.0803938 10.955 -0.362586
          CHANNELS 6 Xposition Yposition Zposition Zrotation Xrotation Yrotation
          JOINT upperneck
          {
            OFFSET 0.744525 13.1821 -0.716092
            CHANNELS 6 Xposition Yposition Zposition Zrotation Xrotation Yrotation
            JOINT head
            {
              OFFSET -0.714609 12.8109 -2.75709
              CHANNELS 6 Xposition Yposition Zposition Zrotation Xrotation Yrotation
              End headSite
              {
                OFFSET -0.301711 13.3161 -0.870562
              }
            }
          }
        }
        JOINT lclavicle
        {
          OFFSET -0.0803938 10.955 -0.362586
          CHANNELS 6 Xposition Yposition Zposition Zrotation Xrotation Yrotation
          JOINT lhumerus
          {
            OFFSET 21.0494 8.71366 -1.80014
            CHANNELS 6 Xposition Yposition Zposition Zrotation Xrotation Yrotation
            JOINT lradius
            {
              OFFSET 0 -27.9395 0
              CHANNELS 6 Xposition Yposition Zposition Zrotation Xrotation Yrotation
              JOINT lwrist
              {
                OFFSET 0 -15.5821 0
                CHANNELS 6 Xposition Yposition Zposition Zrotation Xrotation Yrotation
                JOINT lhand
                {
                  OFFSET 0 -7.79103 0
                  CHANNELS 6 Xposition Yposition Zposition Zrotation Xrotation Yrotation
                  JOINT lfingers
                  {
                    OFFSET 0 -4.76355 0
                    CHANNELS 6 Xposition Yposition Zposition Zrotation Xrotation Yrotation
                    End lfingersSite
                    {
                      OFFSET 0 -3.8405 0
                    }
                  }
                }
                JOINT lthumb
                {
                  OFFSET 0 -7.79103 0
                  CHANNELS 6 Xposition Yposition Zposition Zrotation Xrotation Yrotation
                  End lthumbSite
                  {
                    OFFSET 0 -5.5142 0
                  }
                }
              }
            }
          }
        }
        JOINT rclavicle
        {
          OFFSET -0.0803938 10.955 -0.362586
          CHANNELS 6 Xposition Yposition Zposition Zrotation Xrotation Yrotation
          JOINT rhumerus
          {
            OFFSET -22.6442 7.32563 -0.641706
            CHANNELS 6 Xposition Yposition Zposition Zrotation Xrotation Yrotation
            JOINT rradius
            {
              OFFSET 0 -24.4394 0
              CHANNELS 6 Xposition Yposition Zposition Zrotation Xrotation Yrotation
              JOINT rwrist
              {
                OFFSET 0 -18.0654 0
                CHANNELS 6 Xposition Yposition Zposition Zrotation Xrotation Yrotation
                JOINT rhand
                {
                  OFFSET 0 -9.03275 0
                  CHANNELS 6 Xposition Yposition Zposition Zrotation Xrotation Yrotation
                  JOINT rfingers
                  {
                    OFFSET 0 -5.42111 0
                    CHANNELS 6 Xposition Yposition Zposition Zrotation Xrotation Yrotation
                    End rfingersSite
                    {
                      OFFSET 0 -4.37064 0
                    }
                  }
                }
                JOINT rthumb
                {
                  OFFSET 0 -9.03275 0
                  CHANNELS 6 Xposition Yposition Zposition Zrotation Xrotation Yrotation
                  End rthumbSite
                  {
                    OFFSET 0 -6.27538 0
                  }
                }
              }
            }
          }
        }
      }
    }
  }
  JOINT rfemur
  {
    OFFSET -6.87808 -8.58224 4.63091
    CHANNELS 6 Xposition Yposition Zposition Zrotation Xrotation Yrotation
    JOINT rtibia
    {
      OFFSET 1.05643e-005 -39.9586 0
      CHANNELS 6 Xposition Yposition Zposition Zrotation Xrotation Yrotation
      JOINT rfoot
      {
        OFFSET 0 -32.7363 0
        CHANNELS 6 Xposition Yposition Zposition Zrotation Xrotation Yrotation
        JOINT rtoes
        {
          OFFSET 0 -11.385 -7.56517
          CHANNELS 6 Xposition Yposition Zposition Zrotation Xrotation Yrotation
          End rtoesSite
          {
            OFFSET 0 -6.46114 0
          }
        }
      }
    }
  }
  JOINT lfemur
  {
    OFFSET 6.18079 -8.58223 4.6309
    CHANNELS 6 Xposition Yposition Zposition Zrotation Xrotation Yrotation
    JOINT ltibia
    {
      OFFSET -1.0381e-005 -39.2652 0
      CHANNELS 6 Xposition Yposition Zposition Zrotation Xrotation Yrotation
      JOINT lfoot
      {
        OFFSET -0.00334357 -31.3814 0
        CHANNELS 6 Xposition Yposition Zposition Zrotation Xrotation Yrotation
        JOINT ltoes
        {
          OFFSET 0 -9.94555 -8.16007
          CHANNELS 6 Xposition Yposition Zposition Zrotation Xrotation Yrotation
          End ltoesSite
          {
            OFFSET 0 -5.95839 0
          }
        }
      }
    }
  }
}
MOTION
Frames:	6
Frame Time:	0.00833333
-72.1253 110.238 29.0517 -10.8735 -1.16315 89.0674 0 0 0 0.653466 -10.2146 -1.13006 -0.0146535 10.7314 1.20016 -1.54206 -7.66261 -1.21522 -0.0615349 10.8421 0.200216 -2.0318 -2.30541 -0.524834 -0.0803938 10.955 -0.362586 -10.799 -12.6949 -13.3403 0.744525 13.1821 -0.716092 2.4794 3.41712 44.778 -0.714609 12.8109 -2.75709 151.184 6.72685 125.905 -0.0803938 10.955 -0.362586 -2.38542e-015 0 -2.1419e-014 21.0494 8.71366 -1.80014 10.7835 -1.69573 165.167 1.08638e-009 -27.9395 6.27219e-010 -0 71.3325 0 6.05876e-010 -15.5821 3.49801e-010 1.32647e-014 -3.19322e-015 -117.071 -1.45919e-025 -7.79103 -3.4981e-010 0.133374 -36.6811 0 -1.65336e-025 -4.76355 -2.13835e-010 0 7.12502 -0 -1.45919e-025 -7.79103 -3.4981e-010 -15.1131 -9.76692 3.09611e-015 -0.0803938 10.955 -0.362586 -2.38542e-015 0 -2.1419e-014 -22.6442 7.32563 -0.641706 -4.61338 7.93523 -150.206 -9.50233e-010 -24.4394 5.48614e-010 -0 78.1157 0 -7.02403e-010 -18.0654 4.0553e-010 6.61332e-016 -2.97378e-015 115.076 1.69176e-025 -9.03275 -4.05569e-010 10.0008 -38.1622 0 1.88163e-025 -5.42111 -2.43422e-010 0 7.12502 -0 1.69176e-025 -9.03275 -4.05569e-010 25.3197 -11.1958 -4.39012e-015 -6.87808 -8.58224 4.63091 -3.83036 -17.0679 -16.3337 1.05643e-005 -39.9586 0 -0 22.1394 0 8.65485e-006 -32.7363 0 57.755 -66.1634 60.0141 2.3106e-006 -11.385 -7.56517 -0 -2.22639e-014 -0 6.18079 -8.58223 4.6309 5.5584 -12.3364 8.10726 -1.0381e-005 -39.2652 0 -0 6.50821 0 -0.00334357 -31.3814 0 -19.5344 -61.3078 -22.0212 -2.72415e-008 -9.94555 -8.16007 -0 -1.90833e-014 -0 
-72.0536 109.672 29.1153 -10.902 -1.27894 89.1048 0 0 0 0.631275 -10.5083 -1.16 -0.0146535 10.7314 1.20016 -1.54446 -7.64888 -1.24822 -0.0615349 10.8421 0.200216 -2.03074 -2.13242 -0.537702 -0.0803938 10.955 -0.362586 -10.7236 -12.5521 -13.3473 0.744525 13.1821 -0.716092 2.47671 3.44063 44.6589 -0.714609 12.8109 -2.75709 151.268 6.77576 125.787 -0.0803938 10.955 -0.362586 -2.38542e-015 0 -2.1419e-014 21.0494 8.71366 -1.80014 10.9448 -1.49081 165.481 1.08638e-009 -27.9395 6.27219e-010 -0 71.5395 0 6.05876e-010 -15.5821 3.49801e-010 1.32653e-014 -3.19199e-015 -117.059 -1.45919e-025 -7.79103 -3.4981e-010 0.214496 -36.8183 0 -1.65336e-025 -4.76355 -2.13835e-010 0 7.12502 -0 -1.45919e-025 -7.79103 -3.4981e-010 -15.0382 -9.8993 3.08758e-015 -0.0803938 10.955 -0.362586 -2.38542e-015 0 -2.1419e-014 -22.6442 7.32563 -0.641706 -4.5292 8.07604 -150.475 -9.50233e-010 -24.4394 5.48614e-010 -0 78.401 0 -7.02403e-010 -18.0654 4.0553e-010 6.64889e-016 -2.98137e-015 115.144 1.69176e-025 -9.03275 -4.05569e-010 9.97156 -38.3878 0 1.88163e-025 -5.42111 -2.43422e-010 0 7.12502 -0 1.69176e-025 -9.03275 -4.05569e-010 25.3023 -11.4133 -4.39138e-015 -6.87808 -8.58224 4.63091 -3.8232 -16.9591 -16.4848 1.05643e-005 -39.9586 0 -0 22.0691 0 8.65485e-006 -32.7363 0 57.7425 -66.2327 59.9889 2.3106e-006 -11.385 -7.56517 -0 -2.22639e-014 -0 6.18079 -8.58223 4.6309 5.64956 -12.3703 7.97187 -1.0381e-005 -39.2652 0 -0 6.52333 0 -0.00334357 -31.3814 0 -18.3488 -61.3658 -20.7006 -2.72415e-008 -9.94555 -8.16007 -0 -1.90833e-014 -0 
-71.965 108.991 29.1734 -10.8138 -1.39669 89.0353 0 0 0 0.664055 -10.7582 -1.13189 -0.0146535 10.7314 1.20016 -1.58114 -7.5768 -1.21288 -0.0615349 10.8421 0.200216 -2.093 -1.9213 -0.520688 -0.0803938 10.955 -0.362586 -10.5657 -12.3933 -13.3765 0.744525 13.1821 -0.716092 2.50584 3.45985 44.4323 -0.714609 12.8109 -2.75709 151.375 6.83414 125.493 -0.0803938 10.955 -0.362586 -2.38542e-015 0 -2.1419e-014 21.0494 8.71366 -1.80014 11.0984 -1.2477 165.751 1.08638e-009 -27.9395 6.27219e-010 -0 71.7054 0 6.05876e-010 -15.5821 3.49801e-010 1.32684e-014 -3.18606e-015 -117.005 -1.45919e-025 -7.79103 -3.4981e-010 0.246828 -36.9527 0 -1.65336e-025 -4.76355 -2.13835e-010 0 7.12502 -0 -1.45919e-025 -7.79103 -3.4981e-010 -15.0121 -10.029 3.0854e-015 -0.0803938 10.955 -0.362586 -2.38542e-015 0 -2.1419e-014 -22.6442 7.32563 -0.641706 -4.49009 8.39432 -150.782 -9.50233e-010 -24.4394 5.48614e-010 -0 78.7801 0 -7.02403e-010 -18.0654 4.0553e-010 6.71302e-016 -2.995e-015 115.267 1.69176e-025 -9.03275 -4.05569e-010 9.99009 -38.5827 0 1.88163e-025 -5.42111 -2.43422e-010 0 7.12502 -0 1.69176e-025 -9.03275 -4.05569e-010 25.3312 -11.6013 -4.39775e-015 -6.87808 -8.58224 4.63091 -3.78522 -16.8258 -16.5762 1.05643e-005 -39.9586 0 -0 22.0308 0 8.65485e-006 -32.7363 0 57.5168 -66.3961 59.741 2.3106e-006 -11.385 -7.56517 -0 -2.22639e-014 -0 6.18079 -8.58223 4.6309 5.75821 -12.3964 7.79823 -1.0381e-005 -39.2652 0 -0 6.59172 0 -0.00334357 -31.3814 0 -17.2334 -61.4221 -19.4545 -2.72415e-008 -9.94555 -8.16007 -0 -1.90833e-014 -0 
-71.9204 108.281 29.2308 -10.7556 -1.52511 89.2001 0 0 0 0.659897 -10.8579 -1.18914 -0.0146535 10.7314 1.20016 -1.63001 -7.58242 -1.2853 -0.0615349 10.8421 0.200216 -2.14745 -1.87779 -0.556352 -0.0803938 10.955 -0.362586 -10.4283 -12.195 -13.3847 0.744525 13.1821 -0.716092 2.53511 3.52479 44.4729 -0.714609 12.8109 -2.75709 151.371 6.81072 125.601 -0.0803938 10.955 -0.362586 -2.38542e-015 0 -2.1419e-014 21.0494 8.71366 -1.80014 11.2499 -0.978231 165.952 1.08638e-009 -27.9395 6.27219e-010 -0 71.8215 0 6.05876e-010 -15.5821 3.49801e-010 1.32766e-014 -3.1699e-015 -116.857 -1.45919e-025 -7.79103 -3.4981e-010 0.205147 -37.0943 0 -1.65336e-025 -4.76355 -2.13835e-010 0 7.12502 -0 -1.45919e-025 -7.79103 -3.4981e-010 -15.0605 -10.1657 3.09301e-015 -0.0803938 10.955 -0.362586 -2.38542e-015 0 -2.1419e-014 -22.6442 7.32563 -0.641706 -4.51059 8.95384 -151.144 -9.50233e-010 -24.4394 5.48614e-010 -0 79.2978 0 -7.02403e-010 -18.0654 4.0553e-010 6.82255e-016 -3.0181e-015 115.476 1.69176e-025 -9.03275 -4.05569e-010 10.0812 -38.7425 0 1.88163e-025 -5.42111 -2.43422e-010 0 7.12502 -0 1.69176e-025 -9.03275 -4.05569e-010 25.431 -11.7554 -4.41208e-015 -6.87808 -8.58224 4.63091 -3.70739 -16.6736 -16.6353 1.05643e-005 -39.9586 0 -0 22.0203 0 8.65485e-006 -32.7363 0 57.0013 -66.6466 59.1976 2.3106e-006 -11.385 -7.56517 -0 -2.22639e-014 -0 6.18079 -8.58223 4.6309 5.90988 -12.4246 7.57704 -1.0381e-005 -39.2652 0 -0 6.7228 0 -0.00334357 -31.3814 0 -16.1688 -61.5069 -18.2575 -2.72415e-008 -9.94555 -8.16007 -0 -1.90833e-014 -0 
-71.8589 107.513 29.2781 -10.7435 -1.61961 89.3255 0 0 0 0.607398 -11.1062 -1.22369 -0.0146535 10.7314 1.20016 -1.61672 -7.56854 -1.32193 -0.0615349 10.8421 0.200216 -2.1132 -1.72878 -0.569837 -0.0803938 10.955 -0.362586 -10.4448 -11.9632 -13.3671 0.744525 13.1821 -0.716092 2.51202 3.56343 44.4001 -0.714609 12.8109 -2.75709 151.434 6.79077 125.578 -0.0803938 10.955 -0.362586 -2.38542e-015 0 -2.1419e-014 21.0494 8.71366 -1.80014 11.4015 -0.699543 166.094 1.08638e-009 -27.9395 6.27219e-010 -0 71.8885 0 6.05876e-010 -15.5821 3.49801e-010 1.32886e-014 -3.14596e-015 -116.638 -1.45919e-025 -7.79103 -3.4981e-010 0.106367 -37.2521 0 -1.65336e-025 -4.76355 -2.13835e-010 0 7.12502 -0 -1.45919e-025 -7.79103 -3.4981e-010 -15.1668 -10.3178 3.10837e-015 -0.0803938 10.955 -0.362586 -2.38542e-015 0 -2.1419e-014 -22.6442 7.32563 -0.641706 -4.57375 9.66773 -151.531 -9.50233e-010 -24.4394 5.48614e-010 -0 79.8929 0 -7.02403e-010 -18.0654 4.0553e-010 6.96728e-016 -3.04829e-015 115.749 1.69176e-025 -9.03275 -4.05569e-010 10.2238 -38.8944 0 1.88163e-025 -5.42111 -2.43422e-010 0 7.12502 -0 1.69176e-025 -9.03275 -4.05569e-010 25.5821 -11.9019 -4.43245e-015 -6.87808 -8.58224 4.63091 -3.60466 -16.4994 -16.6715 1.05643e-005 -39.9586 0 -0 22.0303 0 8.65485e-006 -32.7363 0 56.3094 -66.9743 58.4682 2.3106e-006 -11.385 -7.56517 -0 -2.22639e-014 -0 6.18079 -8.58223 4.6309 6.08576 -12.4468 7.31877 -1.0381e-005 -39.2652 0 -0 6.89117 0 -0.00334357 -31.3814 0 -15.1193 -61.6134 -17.0722 -2.72415e-008 -9.94555 -8.16007 -0 -1.90833e-014 -0 
-71.8278 106.651 29.3275 -10.6315 -1.62835 89.4733 0 0 0 0.486537 -11.135 -1.27198 -0.0146535 10.7314 1.20016 -1.68072 -7.59224 -1.37211 -0.0615349 10.8421 0.200216 -2.11563 -1.73889 -0.590702 -0.0803938 10.955 -0.362586 -10.346 -11.6819 -13.3634 0.744525 13.1821 -0.716092 2.5207 3.6383 44.4035 -0.714609 12.8109 -2.75709 151.46 6.76523 125.63 -0.0803938 10.955 -0.362586 -2.38542e-015 0 -2.1419e-014 21.0494 8.71366 -1.80014 11.5394 -0.372416 166.224 1.08638e-009 -27.9395 6.27219e-010 -0 71.9254 0 6.05876e-010 -15.5821 3.49801e-010 1.32992e-014 -3.12479e-015 -116.445 -1.45919e-025 -7.79103 -3.4981e-010 -0.00544293 -37.3968 0 -1.65336e-025 -4.76355 -2.13835e-010 0 7.12502 -0 -1.45919e-025 -7.79103 -3.4981e-010 -15.2856 -10.4574 3.12526e-015 -0.0803938 10.955 -0.362586 -2.38542e-015 0 -2.1419e-014 -22.6442 7.32563 -0.641706 -4.64549 10.4652 -151.923 -9.50233e-010 -24.4394 5.48614e-010 -0 80.5104 0 -7.02403e-010 -18.0654 4.0553e-010 7.1189e-016 -3.07952e-015 116.033 1.69176e-025 -9.03275 -4.05569e-010 10.3779 -39.0281 0 1.88163e-025 -5.42111 -2.43422e-010 0 7.12502 -0 1.69176e-025 -9.03275 -4.05569e-010 25.7437 -12.0307 -4.45382e-015 -6.87808 -8.58224 4.63091 -3.48758 -16.2926 -16.6166 1.05643e-005 -39.9586 0 -0 22.0754 0 8.65485e-006 -32.7363 0 55.4876 -67.3957 57.5934 2.3106e-006 -11.385 -7.56517 -0 -2.22639e-014 -0 6.18079 -8.58223 4.6309 6.24274 -12.4463 7.03655 -1.0381e-005 -39.2652 0 -0 7.09471 0 -0.00334357 -31.3814 0 -14.1534 -61.6867 -15.9839 -2.72415e-008 -9.94555 -8.16007 -0 -1.90833e-014 -0 
